<svg width="24" height="24" viewBox="0 0 388 341" fill="none" xmlns="http://www.w3.org/2000/svg">
<path fill-rule="evenodd" clip-rule="evenodd" d="M121.25 0C54.2855 0 0 54.2029 0 121.066V185.634C0 231.605 25.6614 271.591 63.4617 292.091C54.1722 308.124 41.2214 321.777 25.751 331.911C39.7913 337.766 55.2014 341 71.3681 341C103.903 341 133.374 327.902 154.782 306.7H266.75C333.715 306.7 388 252.497 388 185.634V121.066C388 54.2029 333.715 0 266.75 0H121.25Z" fill="#5156E9"/>
<path d="M204.107 60.9655L210.12 139.675L286.582 162.337L207.042 168.102L184.316 243.699L178.303 164.989L101.841 142.328L181.381 136.563L204.107 60.9655Z" fill="white"/>
<path d="M288.837 43.1582L290.014 73.6983L319.929 81.3739L289.064 82.4664L281.376 112.046L280.2 81.5063L250.284 73.8308L281.149 72.7382L288.837 43.1582Z" fill="white"/>
</svg>
