<svg width="1267" height="341" viewBox="0 0 1267 341" fill="none" xmlns="http://www.w3.org/2000/svg">
<path fill-rule="evenodd" clip-rule="evenodd" d="M121.25 0C54.2855 0 0 54.2029 0 121.066V185.634C0 231.605 25.6614 271.591 63.4617 292.091C54.1722 308.124 41.2214 321.777 25.751 331.911C39.7913 337.766 55.2014 341 71.3681 341C103.903 341 133.374 327.902 154.782 306.7H266.75C333.715 306.7 388 252.497 388 185.634V121.066C388 54.2029 333.715 0 266.75 0H121.25Z" fill="#5156E9"/>
<path d="M204.107 60.9655L210.12 139.675L286.582 162.337L207.042 168.102L184.316 243.699L178.303 164.989L101.841 142.328L181.381 136.563L204.107 60.9655Z" fill="white"/>
<path d="M288.837 43.1582L290.014 73.6983L319.929 81.3739L289.064 82.4664L281.376 112.046L280.2 81.5063L250.284 73.8308L281.149 72.7382L288.837 43.1582Z" fill="white"/>
<path d="M1095.54 298.737V263.915L1199.63 146.957H1097.43V107.593H1263.59V143.172L1159.5 259.373H1267V298.737H1095.54Z" fill="black"/>
<path d="M962.893 304.415C906.874 304.415 860.318 263.158 860.318 203.355C860.318 143.551 908.01 102.294 962.893 102.294C1020.05 102.294 1065.47 143.551 1065.47 203.355C1065.47 263.158 1018.91 304.415 962.893 304.415ZM962.893 261.266C992.795 261.266 1017.4 238.934 1017.4 203.355C1017.4 167.775 992.795 145.444 962.893 145.444C932.613 145.444 908.388 167.775 908.388 203.355C908.388 238.934 932.613 261.266 962.893 261.266Z" fill="black"/>
<path d="M543.371 298.737L463.886 30H515.362L574.03 233.256L636.862 30H686.067L749.277 232.499L807.945 30H857.529L778.044 298.737H725.432L660.329 96.2381L596.362 298.737H543.371Z" fill="black"/>
</svg>
